<svg xmlns="http://www.w3.org/2000/svg" xmlns:xlink="http://www.w3.org/1999/xlink" width="13px" height="13px" viewBox="0 0 13 13" version="1.1">
<g>

<path style=" stroke:none;fill-rule:nonzero;fill:#436372;fill-opacity:1;" d="M 4.0625 9.34375 C 4.734375 9.34375 5.28125 9.890625 5.28125 10.5625 L 5.28125 10.96875 L 7.121094 9.585938 C 7.332031 9.429688 7.589844 9.34375 7.851562 9.34375 L 11.375 9.34375 C 11.597656 9.34375 11.78125 9.160156 11.78125 8.9375 L 11.78125 1.625 C 11.78125 1.402344 11.597656 1.21875 11.375 1.21875 L 1.625 1.21875 C 1.402344 1.21875 1.21875 1.402344 1.21875 1.625 L 1.21875 8.9375 C 1.21875 9.160156 1.402344 9.34375 1.625 9.34375 Z M 5.28125 12.492188 L 5.277344 12.496094 L 5.148438 12.59375 L 4.710938 12.917969 C 4.589844 13.011719 4.425781 13.023438 4.285156 12.957031 C 4.144531 12.886719 4.0625 12.75 4.0625 12.59375 L 4.0625 10.5625 L 1.625 10.5625 C 0.730469 10.5625 0 9.832031 0 8.9375 L 0 1.625 C 0 0.730469 0.730469 0 1.625 0 L 11.375 0 C 12.269531 0 13 0.730469 13 1.625 L 13 8.9375 C 13 9.832031 12.269531 10.5625 11.375 10.5625 L 7.851562 10.5625 Z M 5.28125 12.492188 "/>
</g>
</svg>
